<?xml version="1.0" encoding="iso-8859-1"?>
<!-- Uploaded to: SVG Repo, www.svgrepo.com, Generator: SVG Repo Mixer Tools -->
<svg fill="#000000" height="800px" width="800px" version="1.1" id="Layer_1" xmlns="http://www.w3.org/2000/svg" xmlns:xlink="http://www.w3.org/1999/xlink" 
	 viewBox="0 0 512 512" xml:space="preserve">
<g>
	<g>
		<path d="M503.467,17.067H8.533C3.413,17.067,0,20.48,0,25.6v51.2c0,5.12,3.413,8.533,8.533,8.533h8.533v34.133
			c0,5.12,3.413,8.533,8.533,8.533h8.533v298.667V486.4c0,5.12,3.413,8.533,8.533,8.533h51.2c5.12,0,8.533-3.413,8.533-8.533v-51.2
			h85.333v-59.733c0-37.547,30.72-68.267,68.267-68.267c37.547,0,68.267,30.72,68.267,68.267V435.2H409.6v51.2
			c0,5.12,3.413,8.533,8.533,8.533h51.2c5.12,0,8.533-3.413,8.533-8.533v-59.733V128h8.533c5.12,0,8.533-3.413,8.533-8.533V85.333
			h8.533c5.12,0,8.533-3.413,8.533-8.533V25.6C512,20.48,508.587,17.067,503.467,17.067z M85.333,477.867H51.2V435.2h34.133V477.867
			z M85.333,392.533c0,5.12-3.413,8.533-8.533,8.533s-8.533-3.413-8.533-8.533V358.4c0-5.12,3.413-8.533,8.533-8.533
			s8.533,3.413,8.533,8.533V392.533z M85.333,324.267c0,5.12-3.413,8.533-8.533,8.533s-8.533-3.413-8.533-8.533v-34.133
			c0-5.12,3.413-8.533,8.533-8.533s8.533,3.413,8.533,8.533V324.267z M85.333,256c0,5.12-3.413,8.533-8.533,8.533
			s-8.533-3.413-8.533-8.533v-34.133c0-5.12,3.413-8.533,8.533-8.533s8.533,3.413,8.533,8.533V256z M85.333,187.733
			c0,5.12-3.413,8.533-8.533,8.533s-8.533-3.413-8.533-8.533V153.6c0-5.12,3.413-8.533,8.533-8.533s8.533,3.413,8.533,8.533V187.733
			z M332.8,221.867H179.2c-18.773,0-34.133-15.36-34.133-34.133c0-18.773,15.36-34.133,34.133-34.133h153.6
			c18.773,0,34.133,15.36,34.133,34.133C366.933,206.507,351.573,221.867,332.8,221.867z M460.8,477.867h-34.133V435.2H460.8
			V477.867z M435.2,213.333c5.12,0,8.533,3.413,8.533,8.533V256c0,5.12-3.413,8.533-8.533,8.533s-8.533-3.413-8.533-8.533v-34.133
			C426.667,216.747,430.08,213.333,435.2,213.333z M426.667,187.733V153.6c0-5.12,3.413-8.533,8.533-8.533s8.533,3.413,8.533,8.533
			v34.133c0,5.12-3.413,8.533-8.533,8.533S426.667,192.853,426.667,187.733z M435.2,281.6c5.12,0,8.533,3.413,8.533,8.533v34.133
			c0,5.12-3.413,8.533-8.533,8.533s-8.533-3.413-8.533-8.533v-34.133C426.667,285.013,430.08,281.6,435.2,281.6z M435.2,349.867
			c5.12,0,8.533,3.413,8.533,8.533v34.133c0,5.12-3.413,8.533-8.533,8.533s-8.533-3.413-8.533-8.533V358.4
			C426.667,353.28,430.08,349.867,435.2,349.867z M477.867,110.933h-8.533H42.667h-8.533v-25.6h443.733V110.933z"/>
	</g>
</g>
</svg>